<svg width="4062" height="919" viewBox="0 0 4062 919" fill="none" xmlns="http://www.w3.org/2000/svg">
<g filter="url(#filter0_f_5_161)">
<rect x="36.001" y="231.349" width="1622" height="645" rx="200" fill="url(#paint0_linear_5_161)"/>
</g>
<g filter="url(#filter1_d_5_161)">
<path d="M847.178 30.0103C1064.53 29.4306 1293.91 53.2645 1387.9 134.55C1528.72 256.343 1417.15 429.407 1655.71 554.349H1658C1658 554.747 1658 555.143 1658 555.54C1658.13 555.606 1658.26 555.674 1658.39 555.741H1658C1658 668.157 1657.91 724.54 1636.2 767.147C1617.03 804.779 1586.43 835.376 1548.8 854.55C1506.02 876.349 1450.01 876.349 1338 876.349H356.001C243.991 876.349 187.985 876.349 145.203 854.55C107.571 835.376 76.9745 804.779 57.7998 767.147C36.0908 724.541 36.0013 668.159 36.001 555.746H36L36.001 555.745C36.001 555.28 36.001 554.815 36.001 554.349H38.6836C277.23 429.407 165.661 256.347 306.483 134.556C400.468 53.274 629.83 29.4376 847.178 30.0152V30.0103Z" fill="url(#paint1_linear_5_161)"/>
</g>
<path d="M2120.8 740V268H1935.2V180H2410.4V268H2224.8V740H2120.8ZM2719.39 740V653.6L2713.79 635.2V484C2713.79 454.667 2704.99 432 2687.39 416C2669.79 399.467 2643.13 391.2 2607.39 391.2C2583.39 391.2 2559.66 394.933 2536.19 402.4C2513.26 409.867 2493.79 420.267 2477.79 433.6L2438.59 360.8C2461.53 343.2 2488.73 330.133 2520.19 321.6C2552.19 312.533 2585.26 308 2619.39 308C2681.26 308 2728.99 322.933 2762.59 352.8C2796.73 382.133 2813.79 427.733 2813.79 489.6V740H2719.39ZM2584.99 745.6C2552.99 745.6 2524.99 740.267 2500.99 729.6C2476.99 718.4 2458.33 703.2 2444.99 684C2432.19 664.267 2425.79 642.133 2425.79 617.6C2425.79 593.6 2431.39 572 2442.59 552.8C2454.33 533.6 2473.26 518.4 2499.39 507.2C2525.53 496 2560.19 490.4 2603.39 490.4H2727.39V556.8H2610.59C2576.46 556.8 2553.53 562.4 2541.79 573.6C2530.06 584.267 2524.19 597.6 2524.19 613.6C2524.19 631.733 2531.39 646.133 2545.79 656.8C2560.19 667.467 2580.19 672.8 2605.79 672.8C2630.33 672.8 2652.19 667.2 2671.39 656C2691.13 644.8 2705.26 628.267 2713.79 606.4L2730.59 666.4C2720.99 691.467 2703.66 710.933 2678.59 724.8C2654.06 738.667 2622.86 745.6 2584.99 745.6ZM3178.93 745.6C3142.66 745.6 3110.4 737.6 3082.13 721.6C3053.86 705.6 3031.46 681.6 3014.93 649.6C2998.93 617.067 2990.93 576 2990.93 526.4C2990.93 476.267 2999.2 435.2 3015.73 403.2C3032.8 371.2 3055.46 347.467 3083.73 332C3112.53 316 3144.26 308 3178.93 308C3221.06 308 3258.13 317.067 3290.13 335.2C3322.66 353.333 3348.26 378.667 3366.93 411.2C3386.13 443.733 3395.73 482.133 3395.73 526.4C3395.73 570.667 3386.13 609.067 3366.93 641.6C3348.26 674.133 3322.66 699.733 3290.13 718.4C3258.13 736.533 3221.06 745.6 3178.93 745.6ZM2942.13 740V146.4H3042.13V412L3034.13 525.6L3037.33 639.2V740H2942.13ZM3167.73 660C3191.73 660 3213.06 654.667 3231.73 644C3250.93 633.333 3266.13 617.867 3277.33 597.6C3288.53 577.333 3294.13 553.6 3294.13 526.4C3294.13 498.667 3288.53 474.933 3277.33 455.2C3266.13 434.933 3250.93 419.467 3231.73 408.8C3213.06 398.133 3191.73 392.8 3167.73 392.8C3143.73 392.8 3122.13 398.133 3102.93 408.8C3083.73 419.467 3068.53 434.933 3057.33 455.2C3046.13 474.933 3040.53 498.667 3040.53 526.4C3040.53 553.6 3046.13 577.333 3057.33 597.6C3068.53 617.867 3083.73 633.333 3102.93 644C3122.13 654.667 3143.73 660 3167.73 660ZM3622.57 745.6C3586.84 745.6 3552.44 741.067 3519.37 732C3486.84 722.4 3460.97 710.933 3441.77 697.6L3480.17 621.6C3499.37 633.867 3522.3 644 3548.97 652C3575.64 660 3602.3 664 3628.97 664C3660.44 664 3683.1 659.733 3696.97 651.2C3711.37 642.667 3718.57 631.2 3718.57 616.8C3718.57 605.067 3713.77 596.267 3704.17 590.4C3694.57 584 3682.04 579.2 3666.57 576C3651.1 572.8 3633.77 569.867 3614.57 567.2C3595.9 564.533 3576.97 561.067 3557.77 556.8C3539.1 552 3522.04 545.333 3506.57 536.8C3491.1 527.733 3478.57 515.733 3468.97 500.8C3459.37 485.867 3454.57 466.133 3454.57 441.6C3454.57 414.4 3462.3 390.933 3477.77 371.2C3493.24 350.933 3514.84 335.467 3542.57 324.8C3570.84 313.6 3604.17 308 3642.57 308C3671.37 308 3700.44 311.2 3729.77 317.6C3759.1 324 3783.37 333.067 3802.57 344.8L3764.17 420.8C3743.9 408.533 3723.37 400.267 3702.57 396C3682.3 391.2 3662.04 388.8 3641.77 388.8C3611.37 388.8 3588.7 393.333 3573.77 402.4C3559.37 411.467 3552.17 422.933 3552.17 436.8C3552.17 449.6 3556.97 459.2 3566.57 465.6C3576.17 472 3588.7 477.067 3604.17 480.8C3619.64 484.533 3636.7 487.733 3655.37 490.4C3674.57 492.533 3693.5 496 3712.17 500.8C3730.84 505.6 3747.9 512.267 3763.37 520.8C3779.37 528.8 3792.17 540.267 3801.77 555.2C3811.37 570.133 3816.17 589.6 3816.17 613.6C3816.17 640.267 3808.17 663.467 3792.17 683.2C3776.7 702.933 3754.57 718.4 3725.77 729.6C3696.97 740.267 3662.57 745.6 3622.57 745.6Z" fill="url(#paint2_linear_5_161)"/>
<defs>
<filter id="filter0_f_5_161" x="31.001" y="226.349" width="1632" height="655" filterUnits="userSpaceOnUse" color-interpolation-filters="sRGB">
<feFlood flood-opacity="0" result="BackgroundImageFix"/>
<feBlend mode="normal" in="SourceGraphic" in2="BackgroundImageFix" result="shape"/>
<feGaussianBlur stdDeviation="2.5" result="effect1_foregroundBlur_5_161"/>
</filter>
<filter id="filter1_d_5_161" x="0.299999" y="0.299999" width="1693.79" height="917.75" filterUnits="userSpaceOnUse" color-interpolation-filters="sRGB">
<feFlood flood-opacity="0" result="BackgroundImageFix"/>
<feColorMatrix in="SourceAlpha" type="matrix" values="0 0 0 0 0 0 0 0 0 0 0 0 0 0 0 0 0 0 127 0" result="hardAlpha"/>
<feOffset dy="6"/>
<feGaussianBlur stdDeviation="17.85"/>
<feComposite in2="hardAlpha" operator="out"/>
<feColorMatrix type="matrix" values="0 0 0 0 0 0 0 0 0 0 0 0 0 0 0 0 0 0 0.6 0"/>
<feBlend mode="normal" in2="BackgroundImageFix" result="effect1_dropShadow_5_161"/>
<feBlend mode="normal" in="SourceGraphic" in2="effect1_dropShadow_5_161" result="shape"/>
</filter>
<linearGradient id="paint0_linear_5_161" x1="36.001" y1="553.849" x2="1658" y2="553.849" gradientUnits="userSpaceOnUse">
<stop stop-color="#F8C1C4"/>
<stop offset="1" stop-color="#F8C3C6"/>
</linearGradient>
<linearGradient id="paint1_linear_5_161" x1="36.001" y1="494.674" x2="1658.38" y2="494.674" gradientUnits="userSpaceOnUse">
<stop stop-color="#FF5E7C"/>
<stop offset="1" stop-color="#FF9DAF"/>
</linearGradient>
<linearGradient id="paint2_linear_5_161" x1="1932" y1="453" x2="4062" y2="453" gradientUnits="userSpaceOnUse">
<stop/>
<stop offset="0.75" stop-color="#1D1D1D"/>
<stop offset="1" stop-color="#363636"/>
</linearGradient>
</defs>
</svg>
