<svg width="1695" height="919" viewBox="0 0 1695 919" fill="none" xmlns="http://www.w3.org/2000/svg">
<g filter="url(#filter0_f_3_101)">
<rect x="36.001" y="231.349" width="1622" height="645" rx="200" fill="url(#paint0_linear_3_101)"/>
</g>
<g filter="url(#filter1_d_3_101)">
<path d="M847.178 30.0103C1064.53 29.4306 1293.91 53.2645 1387.9 134.55C1528.72 256.343 1417.15 429.407 1655.71 554.349H1658C1658 554.747 1658 555.143 1658 555.54C1658.13 555.606 1658.26 555.674 1658.39 555.741H1658C1658 668.157 1657.91 724.54 1636.2 767.147C1617.03 804.779 1586.43 835.376 1548.8 854.55C1506.02 876.349 1450.01 876.349 1338 876.349H356.001C243.991 876.349 187.985 876.349 145.203 854.55C107.571 835.376 76.9745 804.779 57.7998 767.147C36.0908 724.541 36.0013 668.159 36.001 555.746H36L36.001 555.745C36.001 555.28 36.001 554.815 36.001 554.349H38.6836C277.23 429.407 165.661 256.347 306.483 134.556C400.468 53.274 629.83 29.4376 847.178 30.0152V30.0103Z" fill="url(#paint1_linear_3_101)"/>
</g>
<defs>
<filter id="filter0_f_3_101" x="31.001" y="226.349" width="1632" height="655" filterUnits="userSpaceOnUse" color-interpolation-filters="sRGB">
<feFlood flood-opacity="0" result="BackgroundImageFix"/>
<feBlend mode="normal" in="SourceGraphic" in2="BackgroundImageFix" result="shape"/>
<feGaussianBlur stdDeviation="2.5" result="effect1_foregroundBlur_3_101"/>
</filter>
<filter id="filter1_d_3_101" x="0.299999" y="0.299999" width="1693.79" height="917.749" filterUnits="userSpaceOnUse" color-interpolation-filters="sRGB">
<feFlood flood-opacity="0" result="BackgroundImageFix"/>
<feColorMatrix in="SourceAlpha" type="matrix" values="0 0 0 0 0 0 0 0 0 0 0 0 0 0 0 0 0 0 127 0" result="hardAlpha"/>
<feOffset dy="6"/>
<feGaussianBlur stdDeviation="17.85"/>
<feComposite in2="hardAlpha" operator="out"/>
<feColorMatrix type="matrix" values="0 0 0 0 0 0 0 0 0 0 0 0 0 0 0 0 0 0 0.6 0"/>
<feBlend mode="normal" in2="BackgroundImageFix" result="effect1_dropShadow_3_101"/>
<feBlend mode="normal" in="SourceGraphic" in2="effect1_dropShadow_3_101" result="shape"/>
</filter>
<linearGradient id="paint0_linear_3_101" x1="36.001" y1="553.849" x2="1658" y2="553.849" gradientUnits="userSpaceOnUse">
<stop stop-color="#F8C1C4"/>
<stop offset="1" stop-color="#F8C3C6"/>
</linearGradient>
<linearGradient id="paint1_linear_3_101" x1="36.001" y1="494.674" x2="1658.38" y2="494.674" gradientUnits="userSpaceOnUse">
<stop stop-color="#FF5E7C"/>
<stop offset="1" stop-color="#FF9DAF"/>
</linearGradient>
</defs>
</svg>
