<svg width="4062" height="919" viewBox="0 0 4062 919" fill="none" xmlns="http://www.w3.org/2000/svg">
<g filter="url(#filter0_f_3_141)">
<rect x="36.001" y="231.349" width="1622" height="645" rx="200" fill="url(#paint0_linear_3_141)"/>
</g>
<g filter="url(#filter1_d_3_141)">
<path d="M847.178 30.0108C1064.53 29.4311 1293.91 53.265 1387.9 134.551C1528.72 256.344 1417.15 429.407 1655.71 554.35H1658C1658 554.747 1658 555.144 1658 555.54C1658.13 555.607 1658.26 555.675 1658.39 555.741H1658C1658 668.158 1657.91 724.541 1636.2 767.147C1617.03 804.78 1586.43 835.376 1548.8 854.551C1506.02 876.349 1450.01 876.35 1338 876.35H356.001C243.991 876.35 187.985 876.349 145.203 854.551C107.571 835.376 76.9745 804.78 57.7998 767.147C36.0908 724.541 36.0013 668.159 36.001 555.746H36L36.001 555.745C36.001 555.281 36.001 554.816 36.001 554.35H38.6836C277.23 429.408 165.661 256.348 306.483 134.557C400.468 53.2745 629.83 29.4381 847.178 30.0156V30.0108Z" fill="url(#paint1_linear_3_141)"/>
</g>
<path d="M2127.2 740V249.6H1935.2V180H2398.4V249.6H2206.4V740H2127.2ZM2714.88 740V650.4L2710.88 633.6V480.8C2710.88 448.267 2701.28 423.2 2682.08 405.6C2663.41 387.467 2635.14 378.4 2597.28 378.4C2572.21 378.4 2547.68 382.667 2523.68 391.2C2499.68 399.2 2479.41 410.133 2462.88 424L2430.88 366.4C2452.74 348.8 2478.88 335.467 2509.28 326.4C2540.21 316.8 2572.48 312 2606.08 312C2664.21 312 2709.01 326.133 2740.48 354.4C2771.94 382.667 2787.68 425.867 2787.68 484V740H2714.88ZM2575.68 744.8C2544.21 744.8 2516.48 739.467 2492.48 728.8C2469.01 718.133 2450.88 703.467 2438.08 684.8C2425.28 665.6 2418.88 644 2418.88 620C2418.88 597.067 2424.21 576.267 2434.88 557.6C2446.08 538.933 2463.94 524 2488.48 512.8C2513.54 501.6 2547.14 496 2589.28 496H2723.68V551.2H2592.48C2554.08 551.2 2528.21 557.6 2514.88 570.4C2501.54 583.2 2494.88 598.667 2494.88 616.8C2494.88 637.6 2503.14 654.4 2519.68 667.2C2536.21 679.467 2559.14 685.6 2588.48 685.6C2617.28 685.6 2642.34 679.2 2663.68 666.4C2685.54 653.6 2701.28 634.933 2710.88 610.4L2726.08 663.2C2715.94 688.267 2698.08 708.267 2672.48 723.2C2646.88 737.6 2614.61 744.8 2575.68 744.8ZM3154.6 744.8C3118.33 744.8 3085.53 736.8 3056.2 720.8C3027.4 704.267 3004.47 680 2987.4 648C2970.87 616 2962.6 576 2962.6 528C2962.6 480 2971.13 440 2988.2 408C3005.8 376 3029 352 3057.8 336C3087.13 320 3119.4 312 3154.6 312C3196.2 312 3233 321.067 3265 339.2C3297 357.333 3322.33 382.667 3341 415.2C3359.67 447.2 3369 484.8 3369 528C3369 571.2 3359.67 609.067 3341 641.6C3322.33 674.133 3297 699.467 3265 717.6C3233 735.733 3196.2 744.8 3154.6 744.8ZM2929.8 740V146.4H3006.6V428.8L2998.6 527.2L3003.4 625.6V740H2929.8ZM3148.2 677.6C3175.4 677.6 3199.67 671.467 3221 659.2C3242.87 646.933 3259.93 629.6 3272.2 607.2C3285 584.267 3291.4 557.867 3291.4 528C3291.4 497.6 3285 471.467 3272.2 449.6C3259.93 427.2 3242.87 409.867 3221 397.6C3199.67 385.333 3175.4 379.2 3148.2 379.2C3121.53 379.2 3097.27 385.333 3075.4 397.6C3054.07 409.867 3037 427.2 3024.2 449.6C3011.93 471.467 3005.8 497.6 3005.8 528C3005.8 557.867 3011.93 584.267 3024.2 607.2C3037 629.6 3054.07 646.933 3075.4 659.2C3097.27 671.467 3121.53 677.6 3148.2 677.6ZM3596.71 744.8C3561.51 744.8 3527.91 740 3495.91 730.4C3464.45 720.8 3439.65 709.067 3421.51 695.2L3453.51 634.4C3471.65 646.667 3494.05 657.067 3520.71 665.6C3547.38 674.133 3574.58 678.4 3602.31 678.4C3638.05 678.4 3663.65 673.333 3679.11 663.2C3695.11 653.067 3703.11 638.933 3703.11 620.8C3703.11 607.467 3698.31 597.067 3688.71 589.6C3679.11 582.133 3666.31 576.533 3650.31 572.8C3634.85 569.067 3617.51 565.867 3598.31 563.2C3579.11 560 3559.91 556.267 3540.71 552C3521.51 547.2 3503.91 540.8 3487.91 532.8C3471.91 524.267 3459.11 512.8 3449.51 498.4C3439.91 483.467 3435.11 463.733 3435.11 439.2C3435.11 413.6 3442.31 391.2 3456.71 372C3471.11 352.8 3491.38 338.133 3517.51 328C3544.18 317.333 3575.65 312 3611.91 312C3639.65 312 3667.65 315.467 3695.91 322.4C3724.71 328.8 3748.18 338.133 3766.31 350.4L3733.51 411.2C3714.31 398.4 3694.31 389.6 3673.51 384.8C3652.71 380 3631.91 377.6 3611.11 377.6C3577.51 377.6 3552.45 383.2 3535.91 394.4C3519.38 405.067 3511.11 418.933 3511.11 436C3511.11 450.4 3515.91 461.6 3525.51 469.6C3535.65 477.067 3548.45 482.933 3563.91 487.2C3579.91 491.467 3597.51 495.2 3616.71 498.4C3635.91 501.067 3655.11 504.8 3674.31 509.6C3693.51 513.867 3710.85 520 3726.31 528C3742.31 536 3755.11 547.2 3764.71 561.6C3774.85 576 3779.91 595.2 3779.91 619.2C3779.91 644.8 3772.45 666.933 3757.51 685.6C3742.58 704.267 3721.51 718.933 3694.31 729.6C3667.11 739.733 3634.58 744.8 3596.71 744.8Z" fill="url(#paint2_linear_3_141)"/>
<defs>
<filter id="filter0_f_3_141" x="31.001" y="226.349" width="1632" height="655" filterUnits="userSpaceOnUse" color-interpolation-filters="sRGB">
<feFlood flood-opacity="0" result="BackgroundImageFix"/>
<feBlend mode="normal" in="SourceGraphic" in2="BackgroundImageFix" result="shape"/>
<feGaussianBlur stdDeviation="2.5" result="effect1_foregroundBlur_3_141"/>
</filter>
<filter id="filter1_d_3_141" x="0.299999" y="0.300488" width="1693.79" height="917.749" filterUnits="userSpaceOnUse" color-interpolation-filters="sRGB">
<feFlood flood-opacity="0" result="BackgroundImageFix"/>
<feColorMatrix in="SourceAlpha" type="matrix" values="0 0 0 0 0 0 0 0 0 0 0 0 0 0 0 0 0 0 127 0" result="hardAlpha"/>
<feOffset dy="6"/>
<feGaussianBlur stdDeviation="17.85"/>
<feComposite in2="hardAlpha" operator="out"/>
<feColorMatrix type="matrix" values="0 0 0 0 0 0 0 0 0 0 0 0 0 0 0 0 0 0 0.6 0"/>
<feBlend mode="normal" in2="BackgroundImageFix" result="effect1_dropShadow_3_141"/>
<feBlend mode="normal" in="SourceGraphic" in2="effect1_dropShadow_3_141" result="shape"/>
</filter>
<linearGradient id="paint0_linear_3_141" x1="36.001" y1="553.849" x2="1658" y2="553.849" gradientUnits="userSpaceOnUse">
<stop stop-color="#F8C1C4"/>
<stop offset="1" stop-color="#F8C3C6"/>
</linearGradient>
<linearGradient id="paint1_linear_3_141" x1="36.001" y1="494.675" x2="1658.38" y2="494.675" gradientUnits="userSpaceOnUse">
<stop stop-color="#FF5E7C"/>
<stop offset="1" stop-color="#FF9DAF"/>
</linearGradient>
<linearGradient id="paint2_linear_3_141" x1="1932" y1="453" x2="4062" y2="453" gradientUnits="userSpaceOnUse">
<stop stop-color="white"/>
<stop offset="0.75" stop-color="#E2E2E2"/>
<stop offset="1" stop-color="#C9C9C9"/>
</linearGradient>
</defs>
</svg>
